<svg width="208" height="273" viewBox="0 0 208 273" fill="none" xmlns="http://www.w3.org/2000/svg">
<path fill-rule="evenodd" clip-rule="evenodd" d="M205.749 0.156711L0.961537 102.915C0.377388 103.208 0 103.869 0 104.6V168.4C0 169.131 0.377388 169.792 0.961537 170.085L205.749 272.843C206.81 273.376 208 272.486 208 271.159V208.996C208 208.266 207.623 207.605 207.038 207.312L69.2745 138.184C67.9923 137.541 67.9923 135.459 69.2745 134.815L207.038 65.688C207.623 65.395 208 64.7339 208 64.0036V1.84124C208 0.514337 206.81 -0.375877 205.749 0.156711Z" fill="black"/>
<path fill-rule="evenodd" clip-rule="evenodd" d="M205.749 0.156711L0.961537 102.915C0.377388 103.208 0 103.869 0 104.6V168.4C0 169.131 0.377388 169.792 0.961537 170.085L205.749 272.843C206.81 273.376 208 272.486 208 271.159V208.996C208 208.266 207.623 207.605 207.038 207.312L69.2745 138.184C67.9923 137.541 67.9923 135.459 69.2745 134.815L207.038 65.688C207.623 65.395 208 64.7339 208 64.0036V1.84124C208 0.514337 206.81 -0.375877 205.749 0.156711Z" fill="#4AC959"/>
</svg>
