<svg width="388" height="74" viewBox="0 0 388 74" fill="none" xmlns="http://www.w3.org/2000/svg">
<path d="M37.2954 1.336H42.5534C45.0614 1.336 46.9974 2.018 48.3614 3.382C49.74 4.73133 50.4294 6.65267 50.4294 9.146C50.4294 11.654 49.74 13.59 48.3614 14.954C46.9974 16.318 45.0614 17 42.5534 17H37.2954V1.336ZM42.4434 15.46C44.4674 15.46 45.9854 14.932 46.9974 13.876C48.024 12.82 48.5374 11.2433 48.5374 9.146C48.5374 4.966 46.506 2.876 42.4434 2.876H39.0994V15.46H42.4434ZM58.6374 5.67C59.0041 5.67 59.3414 5.714 59.6494 5.802L59.6054 7.43C59.2681 7.31267 58.8794 7.254 58.4394 7.254C57.3688 7.254 56.5694 7.59133 56.0414 8.266C55.5281 8.926 55.2714 9.73267 55.2714 10.686V17H53.4894V9.036C53.4894 7.892 53.4308 6.858 53.3134 5.934H55.0074L55.1834 7.98C55.4621 7.232 55.9094 6.66 56.5254 6.264C57.1414 5.868 57.8454 5.67 58.6374 5.67ZM70.9913 5.934V17H69.2313V14.998C68.9086 15.6873 68.4173 16.2227 67.7573 16.604C67.112 16.9707 66.3566 17.154 65.4913 17.154C64.5086 17.154 63.6433 16.9193 62.8953 16.45C62.162 15.9807 61.59 15.3207 61.1793 14.47C60.7833 13.6047 60.5853 12.6 60.5853 11.456C60.5853 10.312 60.7906 9.30733 61.2013 8.442C61.612 7.562 62.184 6.88 62.9173 6.396C63.6653 5.912 64.5233 5.67 65.4913 5.67C66.3566 5.67 67.112 5.86067 67.7573 6.242C68.4026 6.62333 68.894 7.15867 69.2313 7.848V5.934H70.9913ZM65.8433 15.68C66.9286 15.68 67.7646 15.3133 68.3513 14.58C68.938 13.832 69.2313 12.776 69.2313 11.412C69.2313 10.048 68.938 8.99933 68.3513 8.266C67.7646 7.53267 66.9286 7.166 65.8433 7.166C64.758 7.166 63.9073 7.54733 63.2913 8.31C62.69 9.058 62.3893 10.1067 62.3893 11.456C62.3893 12.8053 62.69 13.8467 63.2913 14.58C63.8926 15.3133 64.7433 15.68 65.8433 15.68ZM84.2927 5.934V16.912C84.2927 18.5547 83.8674 19.794 83.0167 20.63C82.1807 21.4807 80.9414 21.906 79.2987 21.906C77.612 21.906 76.16 21.5247 74.9427 20.762L75.2507 19.31C75.9547 19.706 76.6147 19.992 77.2307 20.168C77.8614 20.344 78.5507 20.432 79.2987 20.432C80.3694 20.432 81.176 20.146 81.7187 19.574C82.2614 19.0167 82.5327 18.1807 82.5327 17.066V14.448C82.1954 15.152 81.6967 15.702 81.0367 16.098C80.3914 16.4793 79.6214 16.67 78.7267 16.67C77.7587 16.67 76.8934 16.4427 76.1307 15.988C75.3827 15.5333 74.8034 14.888 74.3927 14.052C73.982 13.216 73.7767 12.2553 73.7767 11.17C73.7767 10.0847 73.982 9.124 74.3927 8.288C74.8034 7.452 75.3827 6.80667 76.1307 6.352C76.8934 5.89733 77.7587 5.67 78.7267 5.67C79.6067 5.67 80.3694 5.86067 81.0147 6.242C81.6747 6.62333 82.1734 7.15867 82.5107 7.848V5.934H84.2927ZM79.0787 15.174C80.1494 15.174 80.9854 14.822 81.5867 14.118C82.2027 13.3993 82.5107 12.4167 82.5107 11.17C82.5107 9.92333 82.2027 8.948 81.5867 8.244C80.9854 7.52533 80.1494 7.166 79.0787 7.166C77.9934 7.166 77.1354 7.52533 76.5047 8.244C75.8887 8.948 75.5807 9.92333 75.5807 11.17C75.5807 12.4167 75.8887 13.3993 76.5047 14.118C77.1354 14.822 77.9934 15.174 79.0787 15.174ZM103.196 5.934V17H101.436V14.998C101.114 15.6873 100.622 16.2227 99.9624 16.604C99.317 16.9707 98.5617 17.154 97.6964 17.154C96.7137 17.154 95.8484 16.9193 95.1004 16.45C94.367 15.9807 93.795 15.3207 93.3844 14.47C92.9884 13.6047 92.7904 12.6 92.7904 11.456C92.7904 10.312 92.9957 9.30733 93.4064 8.442C93.817 7.562 94.389 6.88 95.1224 6.396C95.8704 5.912 96.7284 5.67 97.6964 5.67C98.5617 5.67 99.317 5.86067 99.9624 6.242C100.608 6.62333 101.099 7.15867 101.436 7.848V5.934H103.196ZM98.0484 15.68C99.1337 15.68 99.9697 15.3133 100.556 14.58C101.143 13.832 101.436 12.776 101.436 11.412C101.436 10.048 101.143 8.99933 100.556 8.266C99.9697 7.53267 99.1337 7.166 98.0484 7.166C96.963 7.166 96.1124 7.54733 95.4964 8.31C94.895 9.058 94.5944 10.1067 94.5944 11.456C94.5944 12.8053 94.895 13.8467 95.4964 14.58C96.0977 15.3133 96.9484 15.68 98.0484 15.68ZM112.164 5.67C114.818 5.67 116.146 7.12933 116.146 10.048V17H114.364V10.136C114.364 9.10933 114.158 8.36133 113.748 7.892C113.337 7.408 112.692 7.166 111.812 7.166C110.785 7.166 109.964 7.48133 109.348 8.112C108.732 8.74267 108.424 9.59333 108.424 10.664V17H106.642V9.036C106.642 7.892 106.583 6.858 106.466 5.934H108.16L108.336 7.914C108.673 7.19533 109.179 6.64533 109.854 6.264C110.528 5.868 111.298 5.67 112.164 5.67ZM129.257 0.807999V17H127.497V14.998C127.174 15.6873 126.683 16.2227 126.023 16.604C125.378 16.9707 124.622 17.154 123.757 17.154C122.789 17.154 121.931 16.912 121.183 16.428C120.45 15.944 119.878 15.2693 119.467 14.404C119.056 13.524 118.851 12.512 118.851 11.368C118.851 10.224 119.049 9.22667 119.445 8.376C119.856 7.51067 120.435 6.84333 121.183 6.374C121.931 5.90467 122.789 5.67 123.757 5.67C124.622 5.67 125.378 5.86067 126.023 6.242C126.668 6.60867 127.152 7.12933 127.475 7.804V0.807999H129.257ZM124.109 15.68C125.194 15.68 126.03 15.3133 126.617 14.58C127.204 13.832 127.497 12.776 127.497 11.412C127.497 10.0627 127.204 9.02133 126.617 8.288C126.03 7.54 125.194 7.166 124.109 7.166C123.024 7.166 122.173 7.53267 121.557 8.266C120.956 8.99933 120.655 10.0333 120.655 11.368C120.655 12.732 120.956 13.7953 121.557 14.558C122.173 15.306 123.024 15.68 124.109 15.68ZM148.185 0.807999V17H146.425V14.998C146.102 15.6873 145.611 16.2227 144.951 16.604C144.305 16.9707 143.55 17.154 142.685 17.154C141.717 17.154 140.859 16.912 140.111 16.428C139.377 15.944 138.805 15.2693 138.395 14.404C137.984 13.524 137.779 12.512 137.779 11.368C137.779 10.224 137.977 9.22667 138.373 8.376C138.783 7.51067 139.363 6.84333 140.111 6.374C140.859 5.90467 141.717 5.67 142.685 5.67C143.55 5.67 144.305 5.86067 144.951 6.242C145.596 6.60867 146.08 7.12933 146.403 7.804V0.807999H148.185ZM143.037 15.68C144.122 15.68 144.958 15.3133 145.545 14.58C146.131 13.832 146.425 12.776 146.425 11.412C146.425 10.0627 146.131 9.02133 145.545 8.288C144.958 7.54 144.122 7.166 143.037 7.166C141.951 7.166 141.101 7.53267 140.485 8.266C139.883 8.99933 139.583 10.0333 139.583 11.368C139.583 12.732 139.883 13.7953 140.485 14.558C141.101 15.306 141.951 15.68 143.037 15.68ZM156.778 5.67C157.145 5.67 157.482 5.714 157.79 5.802L157.746 7.43C157.409 7.31267 157.02 7.254 156.58 7.254C155.509 7.254 154.71 7.59133 154.182 8.266C153.669 8.926 153.412 9.73267 153.412 10.686V17H151.63V9.036C151.63 7.892 151.571 6.858 151.454 5.934H153.148L153.324 7.98C153.603 7.232 154.05 6.66 154.666 6.264C155.282 5.868 155.986 5.67 156.778 5.67ZM163.962 17.154C162.921 17.154 162.004 16.9193 161.212 16.45C160.42 15.9807 159.804 15.3133 159.364 14.448C158.939 13.5827 158.726 12.5707 158.726 11.412C158.726 10.2533 158.939 9.24133 159.364 8.376C159.804 7.51067 160.42 6.84333 161.212 6.374C162.004 5.90467 162.921 5.67 163.962 5.67C165.003 5.67 165.92 5.90467 166.712 6.374C167.504 6.84333 168.113 7.51067 168.538 8.376C168.978 9.24133 169.198 10.2533 169.198 11.412C169.198 12.5707 168.978 13.5827 168.538 14.448C168.113 15.3133 167.504 15.9807 166.712 16.45C165.92 16.9193 165.003 17.154 163.962 17.154ZM163.962 15.68C165.062 15.68 165.905 15.3207 166.492 14.602C167.079 13.8687 167.372 12.8053 167.372 11.412C167.372 10.0627 167.071 9.02133 166.47 8.288C165.869 7.54 165.033 7.166 163.962 7.166C162.877 7.166 162.033 7.54 161.432 8.288C160.831 9.02133 160.53 10.0627 160.53 11.412C160.53 12.8053 160.823 13.8687 161.41 14.602C162.011 15.3207 162.862 15.68 163.962 15.68ZM177.498 5.67C178.466 5.67 179.324 5.912 180.072 6.396C180.82 6.88 181.399 7.562 181.81 8.442C182.22 9.30733 182.426 10.312 182.426 11.456C182.426 12.6 182.22 13.6047 181.81 14.47C181.399 15.3207 180.82 15.9807 180.072 16.45C179.338 16.9193 178.48 17.154 177.498 17.154C176.632 17.154 175.877 16.9633 175.232 16.582C174.586 16.2007 174.095 15.658 173.758 14.954V21.752H171.976V9.036C171.976 7.892 171.917 6.858 171.8 5.934H173.494L173.67 8.068C173.978 7.30533 174.462 6.71867 175.122 6.308C175.796 5.88267 176.588 5.67 177.498 5.67ZM177.168 15.68C178.253 15.68 179.089 15.3133 179.676 14.58C180.277 13.8467 180.578 12.8053 180.578 11.456C180.578 10.1067 180.277 9.058 179.676 8.31C179.074 7.54733 178.238 7.166 177.168 7.166C176.068 7.166 175.224 7.53267 174.638 8.266C174.051 8.99933 173.758 10.048 173.758 11.412C173.758 12.776 174.051 13.832 174.638 14.58C175.224 15.3133 176.068 15.68 177.168 15.68ZM193.28 7.342V13.392C193.28 14.2133 193.448 14.7927 193.786 15.13C194.123 15.4527 194.6 15.614 195.216 15.614C195.626 15.614 196.022 15.548 196.404 15.416V16.934C195.949 17.0807 195.436 17.154 194.864 17.154C193.808 17.154 192.979 16.8607 192.378 16.274C191.791 15.6727 191.498 14.7927 191.498 13.634V7.342H189.342V5.934H191.498V3.096L193.28 2.458V5.934H196.448V7.342H193.28ZM203.171 17.154C202.13 17.154 201.213 16.9193 200.421 16.45C199.629 15.9807 199.013 15.3133 198.573 14.448C198.148 13.5827 197.935 12.5707 197.935 11.412C197.935 10.2533 198.148 9.24133 198.573 8.376C199.013 7.51067 199.629 6.84333 200.421 6.374C201.213 5.90467 202.13 5.67 203.171 5.67C204.212 5.67 205.129 5.90467 205.921 6.374C206.713 6.84333 207.322 7.51067 207.747 8.376C208.187 9.24133 208.407 10.2533 208.407 11.412C208.407 12.5707 208.187 13.5827 207.747 14.448C207.322 15.3133 206.713 15.9807 205.921 16.45C205.129 16.9193 204.212 17.154 203.171 17.154ZM203.171 15.68C204.271 15.68 205.114 15.3207 205.701 14.602C206.288 13.8687 206.581 12.8053 206.581 11.412C206.581 10.0627 206.28 9.02133 205.679 8.288C205.078 7.54 204.242 7.166 203.171 7.166C202.086 7.166 201.242 7.54 200.641 8.288C200.04 9.02133 199.739 10.0627 199.739 11.412C199.739 12.8053 200.032 13.8687 200.619 14.602C201.22 15.3207 202.071 15.68 203.171 15.68ZM220.661 17.154C218.798 17.154 217.324 16.6773 216.239 15.724L216.833 14.404C217.434 14.8733 218.043 15.2107 218.659 15.416C219.275 15.6213 219.964 15.724 220.727 15.724C221.563 15.724 222.194 15.5847 222.619 15.306C223.059 15.0127 223.279 14.5947 223.279 14.052C223.279 13.612 223.132 13.26 222.839 12.996C222.546 12.732 222.062 12.5267 221.387 12.38L219.517 11.94C218.593 11.7347 217.874 11.368 217.361 10.84C216.862 10.312 216.613 9.68133 216.613 8.948C216.613 7.98 217.002 7.19533 217.779 6.594C218.556 5.978 219.583 5.67 220.859 5.67C221.636 5.67 222.37 5.79467 223.059 6.044C223.748 6.29333 224.328 6.65267 224.797 7.122L224.203 8.42C223.162 7.55467 222.047 7.122 220.859 7.122C220.067 7.122 219.451 7.276 219.011 7.584C218.586 7.87733 218.373 8.29533 218.373 8.838C218.373 9.29267 218.505 9.652 218.769 9.916C219.048 10.18 219.488 10.3853 220.089 10.532L221.959 10.994C222.986 11.2287 223.748 11.5953 224.247 12.094C224.746 12.578 224.995 13.216 224.995 14.008C224.995 14.9613 224.606 15.724 223.829 16.296C223.052 16.868 221.996 17.154 220.661 17.154ZM237.097 11.412H228.979C228.994 12.82 229.316 13.8833 229.947 14.602C230.592 15.3207 231.524 15.68 232.741 15.68C234.032 15.68 235.22 15.2473 236.305 14.382L236.899 15.68C236.415 16.1347 235.792 16.494 235.029 16.758C234.281 17.022 233.511 17.154 232.719 17.154C230.988 17.154 229.632 16.648 228.649 15.636C227.666 14.6093 227.175 13.2087 227.175 11.434C227.175 10.3047 227.395 9.30733 227.835 8.442C228.275 7.562 228.891 6.88 229.683 6.396C230.475 5.912 231.377 5.67 232.389 5.67C233.856 5.67 235.007 6.154 235.843 7.122C236.679 8.07533 237.097 9.39533 237.097 11.082V11.412ZM232.411 7.056C231.487 7.056 230.732 7.33467 230.145 7.892C229.573 8.44933 229.206 9.234 229.045 10.246H235.491C235.403 9.20467 235.095 8.41267 234.567 7.87C234.054 7.32733 233.335 7.056 232.411 7.056ZM242.113 7.342V13.392C242.113 14.2133 242.282 14.7927 242.619 15.13C242.957 15.4527 243.433 15.614 244.049 15.614C244.46 15.614 244.856 15.548 245.237 15.416V16.934C244.783 17.0807 244.269 17.154 243.697 17.154C242.641 17.154 241.813 16.8607 241.211 16.274C240.625 15.6727 240.331 14.7927 240.331 13.634V7.342H238.175V5.934H240.331V3.096L242.113 2.458V5.934H245.281V7.342H242.113ZM262.889 5.934L257.719 18.012C257.177 19.2733 256.495 20.1973 255.673 20.784C254.852 21.3707 253.84 21.774 252.637 21.994L252.263 20.608C253.305 20.3733 254.089 20.058 254.617 19.662C255.16 19.2807 255.607 18.6867 255.959 17.88L256.399 16.89L251.713 5.934H253.583L257.323 15.064L261.107 5.934H262.889ZM269.3 17.154C268.258 17.154 267.342 16.9193 266.55 16.45C265.758 15.9807 265.142 15.3133 264.702 14.448C264.276 13.5827 264.064 12.5707 264.064 11.412C264.064 10.2533 264.276 9.24133 264.702 8.376C265.142 7.51067 265.758 6.84333 266.55 6.374C267.342 5.90467 268.258 5.67 269.3 5.67C270.341 5.67 271.258 5.90467 272.05 6.374C272.842 6.84333 273.45 7.51067 273.876 8.376C274.316 9.24133 274.536 10.2533 274.536 11.412C274.536 12.5707 274.316 13.5827 273.876 14.448C273.45 15.3133 272.842 15.9807 272.05 16.45C271.258 16.9193 270.341 17.154 269.3 17.154ZM269.3 15.68C270.4 15.68 271.243 15.3207 271.83 14.602C272.416 13.8687 272.71 12.8053 272.71 11.412C272.71 10.0627 272.409 9.02133 271.808 8.288C271.206 7.54 270.37 7.166 269.3 7.166C268.214 7.166 267.371 7.54 266.77 8.288C266.168 9.02133 265.868 10.0627 265.868 11.412C265.868 12.8053 266.161 13.8687 266.748 14.602C267.349 15.3207 268.2 15.68 269.3 15.68ZM286.576 5.934V17H284.838V15.086C284.486 15.7607 283.994 16.274 283.364 16.626C282.733 16.978 282.022 17.154 281.23 17.154C279.924 17.154 278.934 16.7873 278.26 16.054C277.585 15.3207 277.248 14.2353 277.248 12.798V5.934H279.03V12.754C279.03 13.7513 279.235 14.4847 279.646 14.954C280.056 15.4233 280.68 15.658 281.516 15.658C282.498 15.658 283.29 15.3427 283.892 14.712C284.493 14.0667 284.794 13.2233 284.794 12.182V5.934H286.576ZM295.159 5.67C295.526 5.67 295.863 5.714 296.171 5.802L296.127 7.43C295.79 7.31267 295.401 7.254 294.961 7.254C293.89 7.254 293.091 7.59133 292.563 8.266C292.05 8.926 291.793 9.73267 291.793 10.686V17H290.011V9.036C290.011 7.892 289.952 6.858 289.835 5.934H291.529L291.705 7.98C291.984 7.232 292.431 6.66 293.047 6.264C293.663 5.868 294.367 5.67 295.159 5.67ZM315.994 5.67C318.443 5.67 319.668 7.12933 319.668 10.048V17H317.886V10.136C317.886 9.09467 317.703 8.33933 317.336 7.87C316.984 7.40067 316.405 7.166 315.598 7.166C314.659 7.166 313.926 7.48133 313.398 8.112C312.87 8.74267 312.606 9.60067 312.606 10.686V17H310.824V10.136C310.824 9.10933 310.641 8.36133 310.274 7.892C309.907 7.408 309.321 7.166 308.514 7.166C307.575 7.166 306.835 7.48133 306.292 8.112C305.764 8.74267 305.5 9.60067 305.5 10.686V17H303.718V9.036C303.718 7.892 303.659 6.858 303.542 5.934H305.236L305.412 7.87C305.72 7.166 306.175 6.62333 306.776 6.242C307.392 5.86067 308.103 5.67 308.91 5.67C309.79 5.67 310.509 5.846 311.066 6.198C311.623 6.55 312.034 7.09267 312.298 7.826C312.635 7.166 313.127 6.64533 313.772 6.264C314.432 5.868 315.173 5.67 315.994 5.67ZM332.8 5.934V17H331.04V14.998C330.717 15.6873 330.226 16.2227 329.566 16.604C328.921 16.9707 328.165 17.154 327.3 17.154C326.317 17.154 325.452 16.9193 324.704 16.45C323.971 15.9807 323.399 15.3207 322.988 14.47C322.592 13.6047 322.394 12.6 322.394 11.456C322.394 10.312 322.599 9.30733 323.01 8.442C323.421 7.562 323.993 6.88 324.726 6.396C325.474 5.912 326.332 5.67 327.3 5.67C328.165 5.67 328.921 5.86067 329.566 6.242C330.211 6.62333 330.703 7.15867 331.04 7.848V5.934H332.8ZM327.652 15.68C328.737 15.68 329.573 15.3133 330.16 14.58C330.747 13.832 331.04 12.776 331.04 11.412C331.04 10.048 330.747 8.99933 330.16 8.266C329.573 7.53267 328.737 7.166 327.652 7.166C326.567 7.166 325.716 7.54733 325.1 8.31C324.499 9.058 324.198 10.1067 324.198 11.456C324.198 12.8053 324.499 13.8467 325.1 14.58C325.701 15.3133 326.552 15.68 327.652 15.68ZM336.245 5.934H338.027V17H336.245V5.934ZM338.247 1.248V3.272H336.069V1.248H338.247ZM347.009 5.67C349.664 5.67 350.991 7.12933 350.991 10.048V17H349.209V10.136C349.209 9.10933 349.004 8.36133 348.593 7.892C348.183 7.408 347.537 7.166 346.657 7.166C345.631 7.166 344.809 7.48133 344.193 8.112C343.577 8.74267 343.269 9.59333 343.269 10.664V17H341.487V9.036C341.487 7.892 341.429 6.858 341.311 5.934H343.005L343.181 7.914C343.519 7.19533 344.025 6.64533 344.699 6.264C345.374 5.868 346.144 5.67 347.009 5.67ZM6.34249 33.67C7.31049 33.67 8.16849 33.912 8.91649 34.396C9.66449 34.88 10.2438 35.562 10.6545 36.442C11.0652 37.3073 11.2705 38.312 11.2705 39.456C11.2705 40.6 11.0652 41.6047 10.6545 42.47C10.2438 43.3207 9.66449 43.9807 8.91649 44.45C8.18316 44.9193 7.32516 45.154 6.34249 45.154C5.47716 45.154 4.72183 44.9633 4.07649 44.582C3.43116 44.2007 2.93983 43.658 2.60249 42.954V49.752H0.820492V37.036C0.820492 35.892 0.761826 34.858 0.644492 33.934H2.33849L2.51449 36.068C2.82249 35.3053 3.30649 34.7187 3.96649 34.308C4.64116 33.8827 5.43316 33.67 6.34249 33.67ZM6.01249 43.68C7.09783 43.68 7.93383 43.3133 8.52049 42.58C9.12183 41.8467 9.42249 40.8053 9.42249 39.456C9.42249 38.1067 9.12183 37.058 8.52049 36.31C7.91916 35.5473 7.08316 35.166 6.01249 35.166C4.91249 35.166 4.06916 35.5327 3.48249 36.266C2.89583 36.9993 2.60249 38.048 2.60249 39.412C2.60249 40.776 2.89583 41.832 3.48249 42.58C4.06916 43.3133 4.91249 43.68 6.01249 43.68ZM19.1599 33.67C19.5266 33.67 19.8639 33.714 20.1719 33.802L20.1279 35.43C19.7906 35.3127 19.4019 35.254 18.9619 35.254C17.8912 35.254 17.0919 35.5913 16.5639 36.266C16.0506 36.926 15.7939 37.7327 15.7939 38.686V45H14.0119V37.036C14.0119 35.892 13.9532 34.858 13.8359 33.934H15.5299L15.7059 35.98C15.9846 35.232 16.4319 34.66 17.0479 34.264C17.6639 33.868 18.3679 33.67 19.1599 33.67ZM21.9826 33.934H23.7646V45H21.9826V33.934ZM23.9846 29.248V31.272H21.8066V29.248H23.9846ZM31.8008 45.154C30.7595 45.154 29.8428 44.9193 29.0508 44.45C28.2588 43.9807 27.6428 43.3133 27.2028 42.448C26.7775 41.5827 26.5648 40.5707 26.5648 39.412C26.5648 38.2533 26.7775 37.2413 27.2028 36.376C27.6428 35.5107 28.2588 34.8433 29.0508 34.374C29.8428 33.9047 30.7595 33.67 31.8008 33.67C32.8421 33.67 33.7588 33.9047 34.5508 34.374C35.3428 34.8433 35.9515 35.5107 36.3768 36.376C36.8168 37.2413 37.0368 38.2533 37.0368 39.412C37.0368 40.5707 36.8168 41.5827 36.3768 42.448C35.9515 43.3133 35.3428 43.9807 34.5508 44.45C33.7588 44.9193 32.8421 45.154 31.8008 45.154ZM31.8008 43.68C32.9008 43.68 33.7441 43.3207 34.3308 42.602C34.9175 41.8687 35.2108 40.8053 35.2108 39.412C35.2108 38.0627 34.9101 37.0213 34.3088 36.288C33.7075 35.54 32.8715 35.166 31.8008 35.166C30.7155 35.166 29.8721 35.54 29.2708 36.288C28.6695 37.0213 28.3688 38.0627 28.3688 39.412C28.3688 40.8053 28.6621 41.8687 29.2488 42.602C29.8501 43.3207 30.7008 43.68 31.8008 43.68ZM44.9626 33.67C45.3293 33.67 45.6666 33.714 45.9746 33.802L45.9306 35.43C45.5933 35.3127 45.2046 35.254 44.7646 35.254C43.694 35.254 42.8946 35.5913 42.3666 36.266C41.8533 36.926 41.5966 37.7327 41.5966 38.686V45H39.8146V37.036C39.8146 35.892 39.756 34.858 39.6386 33.934H41.3326L41.5086 35.98C41.7873 35.232 42.2346 34.66 42.8506 34.264C43.4666 33.868 44.1706 33.67 44.9626 33.67ZM47.7853 33.934H49.5673V45H47.7853V33.934ZM49.7873 29.248V31.272H47.6093V29.248H49.7873ZM55.4035 35.342V41.392C55.4035 42.2133 55.5722 42.7927 55.9095 43.13C56.2469 43.4527 56.7235 43.614 57.3395 43.614C57.7502 43.614 58.1462 43.548 58.5275 43.416V44.934C58.0729 45.0807 57.5595 45.154 56.9875 45.154C55.9315 45.154 55.1029 44.8607 54.5015 44.274C53.9149 43.6727 53.6215 42.7927 53.6215 41.634V35.342H51.4655V33.934H53.6215V31.096L55.4035 30.458V33.934H58.5715V35.342H55.4035ZM60.7189 33.934H62.5009V45H60.7189V33.934ZM62.7209 29.248V31.272H60.5429V29.248H62.7209ZM75.2231 39.412H67.1051C67.1198 40.82 67.4425 41.8833 68.0731 42.602C68.7185 43.3207 69.6498 43.68 70.8671 43.68C72.1578 43.68 73.3458 43.2473 74.4311 42.382L75.0251 43.68C74.5411 44.1347 73.9178 44.494 73.1551 44.758C72.4071 45.022 71.6371 45.154 70.8451 45.154C69.1145 45.154 67.7578 44.648 66.7751 43.636C65.7925 42.6093 65.3011 41.2087 65.3011 39.434C65.3011 38.3047 65.5211 37.3073 65.9611 36.442C66.4011 35.562 67.0171 34.88 67.8091 34.396C68.6011 33.912 69.5031 33.67 70.5151 33.67C71.9818 33.67 73.1331 34.154 73.9691 35.122C74.8051 36.0753 75.2231 37.3953 75.2231 39.082V39.412ZM70.5371 35.056C69.6131 35.056 68.8578 35.3347 68.2711 35.892C67.6991 36.4493 67.3325 37.234 67.1711 38.246H73.6171C73.5291 37.2047 73.2211 36.4127 72.6931 35.87C72.1798 35.3273 71.4611 35.056 70.5371 35.056ZM81.6679 45.154C79.8052 45.154 78.3312 44.6773 77.2459 43.724L77.8399 42.404C78.4412 42.8733 79.0499 43.2107 79.6659 43.416C80.2819 43.6213 80.9712 43.724 81.7339 43.724C82.5699 43.724 83.2006 43.5847 83.6259 43.306C84.0659 43.0127 84.2859 42.5947 84.2859 42.052C84.2859 41.612 84.1392 41.26 83.8459 40.996C83.5526 40.732 83.0686 40.5267 82.3939 40.38L80.5239 39.94C79.5999 39.7347 78.8812 39.368 78.3679 38.84C77.8692 38.312 77.6199 37.6813 77.6199 36.948C77.6199 35.98 78.0086 35.1953 78.7859 34.594C79.5632 33.978 80.5899 33.67 81.8659 33.67C82.6432 33.67 83.3766 33.7947 84.0659 34.044C84.7552 34.2933 85.3346 34.6527 85.8039 35.122L85.2099 36.42C84.1686 35.5547 83.0539 35.122 81.8659 35.122C81.0739 35.122 80.4579 35.276 80.0179 35.584C79.5926 35.8773 79.3799 36.2953 79.3799 36.838C79.3799 37.2927 79.5119 37.652 79.7759 37.916C80.0546 38.18 80.4946 38.3853 81.0959 38.532L82.9659 38.994C83.9926 39.2287 84.7552 39.5953 85.2539 40.094C85.7526 40.578 86.0019 41.216 86.0019 42.008C86.0019 42.9613 85.6132 43.724 84.8359 44.296C84.0586 44.868 83.0026 45.154 81.6679 45.154ZM90.6926 42.734V44.34C90.6926 44.956 90.5899 45.5207 90.3846 46.034C90.1792 46.5473 89.8346 47.046 89.3506 47.53L88.5146 46.892C89.0866 46.232 89.4092 45.6013 89.4826 45H88.4266V42.734H90.6926ZM104.205 45.154C103.134 45.154 102.195 44.9193 101.389 44.45C100.597 43.9807 99.9807 43.3207 99.5407 42.47C99.1153 41.6047 98.9027 40.6 98.9027 39.456C98.9027 38.312 99.1227 37.3073 99.5627 36.442C100.003 35.562 100.626 34.88 101.433 34.396C102.254 33.912 103.207 33.67 104.293 33.67C105.041 33.67 105.759 33.802 106.449 34.066C107.153 34.3153 107.732 34.6673 108.187 35.122L107.593 36.442C107.035 36.002 106.493 35.6793 105.965 35.474C105.451 35.2687 104.923 35.166 104.381 35.166C103.251 35.166 102.364 35.5473 101.719 36.31C101.073 37.058 100.751 38.1067 100.751 39.456C100.751 40.7907 101.066 41.832 101.697 42.58C102.342 43.3133 103.237 43.68 104.381 43.68C104.923 43.68 105.451 43.5773 105.965 43.372C106.493 43.1667 107.035 42.844 107.593 42.404L108.187 43.724C107.717 44.164 107.123 44.516 106.405 44.78C105.701 45.0293 104.967 45.154 104.205 45.154ZM115.977 33.67C118.632 33.67 119.959 35.1293 119.959 38.048V45H118.177V38.136C118.177 37.1093 117.972 36.3613 117.561 35.892C117.151 35.408 116.505 35.166 115.625 35.166C114.599 35.166 113.777 35.4813 113.161 36.112C112.545 36.7427 112.237 37.5933 112.237 38.664V45H110.455V28.808H112.237V35.738C112.589 35.0633 113.088 34.55 113.733 34.198C114.393 33.846 115.141 33.67 115.977 33.67ZM132.586 39.412H124.468C124.483 40.82 124.806 41.8833 125.436 42.602C126.082 43.3207 127.013 43.68 128.23 43.68C129.521 43.68 130.709 43.2473 131.794 42.382L132.388 43.68C131.904 44.1347 131.281 44.494 130.518 44.758C129.77 45.022 129 45.154 128.208 45.154C126.478 45.154 125.121 44.648 124.138 43.636C123.156 42.6093 122.664 41.2087 122.664 39.434C122.664 38.3047 122.884 37.3073 123.324 36.442C123.764 35.562 124.38 34.88 125.172 34.396C125.964 33.912 126.866 33.67 127.878 33.67C129.345 33.67 130.496 34.154 131.332 35.122C132.168 36.0753 132.586 37.3953 132.586 39.082V39.412ZM127.9 35.056C126.976 35.056 126.221 35.3347 125.634 35.892C125.062 36.4493 124.696 37.234 124.534 38.246H130.98C130.892 37.2047 130.584 36.4127 130.056 35.87C129.543 35.3273 128.824 35.056 127.9 35.056ZM139.933 45.154C138.863 45.154 137.924 44.9193 137.117 44.45C136.325 43.9807 135.709 43.3207 135.269 42.47C134.844 41.6047 134.631 40.6 134.631 39.456C134.631 38.312 134.851 37.3073 135.291 36.442C135.731 35.562 136.355 34.88 137.161 34.396C137.983 33.912 138.936 33.67 140.021 33.67C140.769 33.67 141.488 33.802 142.177 34.066C142.881 34.3153 143.461 34.6673 143.915 35.122L143.321 36.442C142.764 36.002 142.221 35.6793 141.693 35.474C141.18 35.2687 140.652 35.166 140.109 35.166C138.98 35.166 138.093 35.5473 137.447 36.31C136.802 37.058 136.479 38.1067 136.479 39.456C136.479 40.7907 136.795 41.832 137.425 42.58C138.071 43.3133 138.965 43.68 140.109 43.68C140.652 43.68 141.18 43.5773 141.693 43.372C142.221 43.1667 142.764 42.844 143.321 42.404L143.915 43.724C143.446 44.164 142.852 44.516 142.133 44.78C141.429 45.0293 140.696 45.154 139.933 45.154ZM153.642 45L147.966 39.676V45H146.184V28.808H147.966V39.016L153.18 33.956H155.446L149.902 39.258L155.974 45H153.642ZM180.05 33.934L175.958 45H174.242L171.074 36.354L167.928 45H166.212L162.12 33.934H163.99L167.114 42.866L170.348 33.934H171.91L175.1 42.888L178.29 33.934H180.05ZM187.885 33.67C190.54 33.67 191.867 35.1293 191.867 38.048V45H190.085V38.136C190.085 37.1093 189.88 36.3613 189.469 35.892C189.059 35.408 188.413 35.166 187.533 35.166C186.507 35.166 185.685 35.4813 185.069 36.112C184.453 36.7427 184.145 37.5933 184.145 38.664V45H182.363V28.808H184.145V35.738C184.497 35.0633 184.996 34.55 185.641 34.198C186.301 33.846 187.049 33.67 187.885 33.67ZM204.495 39.412H196.377C196.391 40.82 196.714 41.8833 197.345 42.602C197.99 43.3207 198.921 43.68 200.139 43.68C201.429 43.68 202.617 43.2473 203.703 42.382L204.297 43.68C203.813 44.1347 203.189 44.494 202.427 44.758C201.679 45.022 200.909 45.154 200.117 45.154C198.386 45.154 197.029 44.648 196.047 43.636C195.064 42.6093 194.573 41.2087 194.573 39.434C194.573 38.3047 194.793 37.3073 195.233 36.442C195.673 35.562 196.289 34.88 197.081 34.396C197.873 33.912 198.775 33.67 199.787 33.67C201.253 33.67 202.405 34.154 203.241 35.122C204.077 36.0753 204.495 37.3953 204.495 39.082V39.412ZM199.809 35.056C198.885 35.056 198.129 35.3347 197.543 35.892C196.971 36.4493 196.604 37.234 196.443 38.246H202.889C202.801 37.2047 202.493 36.4127 201.965 35.87C201.451 35.3273 200.733 35.056 199.809 35.056ZM212.721 33.67C215.376 33.67 216.703 35.1293 216.703 38.048V45H214.921V38.136C214.921 37.1093 214.716 36.3613 214.305 35.892C213.895 35.408 213.249 35.166 212.369 35.166C211.343 35.166 210.521 35.4813 209.905 36.112C209.289 36.7427 208.981 37.5933 208.981 38.664V45H207.199V37.036C207.199 35.892 207.141 34.858 207.023 33.934H208.717L208.893 35.914C209.231 35.1953 209.737 34.6453 210.411 34.264C211.086 33.868 211.856 33.67 212.721 33.67ZM235.551 28.808V45H233.791V42.998C233.468 43.6873 232.977 44.2227 232.317 44.604C231.672 44.9707 230.916 45.154 230.051 45.154C229.083 45.154 228.225 44.912 227.477 44.428C226.744 43.944 226.172 43.2693 225.761 42.404C225.35 41.524 225.145 40.512 225.145 39.368C225.145 38.224 225.343 37.2267 225.739 36.376C226.15 35.5107 226.729 34.8433 227.477 34.374C228.225 33.9047 229.083 33.67 230.051 33.67C230.916 33.67 231.672 33.8607 232.317 34.242C232.962 34.6087 233.446 35.1293 233.769 35.804V28.808H235.551ZM230.403 43.68C231.488 43.68 232.324 43.3133 232.911 42.58C233.498 41.832 233.791 40.776 233.791 39.412C233.791 38.0627 233.498 37.0213 232.911 36.288C232.324 35.54 231.488 35.166 230.403 35.166C229.318 35.166 228.467 35.5327 227.851 36.266C227.25 36.9993 226.949 38.0333 226.949 39.368C226.949 40.732 227.25 41.7953 227.851 42.558C228.467 43.306 229.318 43.68 230.403 43.68ZM243.572 45.154C242.531 45.154 241.614 44.9193 240.822 44.45C240.03 43.9807 239.414 43.3133 238.974 42.448C238.549 41.5827 238.336 40.5707 238.336 39.412C238.336 38.2533 238.549 37.2413 238.974 36.376C239.414 35.5107 240.03 34.8433 240.822 34.374C241.614 33.9047 242.531 33.67 243.572 33.67C244.614 33.67 245.53 33.9047 246.322 34.374C247.114 34.8433 247.723 35.5107 248.148 36.376C248.588 37.2413 248.808 38.2533 248.808 39.412C248.808 40.5707 248.588 41.5827 248.148 42.448C247.723 43.3133 247.114 43.9807 246.322 44.45C245.53 44.9193 244.614 45.154 243.572 45.154ZM243.572 43.68C244.672 43.68 245.516 43.3207 246.102 42.602C246.689 41.8687 246.982 40.8053 246.982 39.412C246.982 38.0627 246.682 37.0213 246.08 36.288C245.479 35.54 244.643 35.166 243.572 35.166C242.487 35.166 241.644 35.54 241.042 36.288C240.441 37.0213 240.14 38.0627 240.14 39.412C240.14 40.8053 240.434 41.8687 241.02 42.602C241.622 43.3207 242.472 43.68 243.572 43.68ZM257.108 33.67C259.763 33.67 261.09 35.1293 261.09 38.048V45H259.308V38.136C259.308 37.1093 259.103 36.3613 258.692 35.892C258.281 35.408 257.636 35.166 256.756 35.166C255.729 35.166 254.908 35.4813 254.292 36.112C253.676 36.7427 253.368 37.5933 253.368 38.664V45H251.586V37.036C251.586 35.892 251.527 34.858 251.41 33.934H253.104L253.28 35.914C253.617 35.1953 254.123 34.6453 254.798 34.264C255.473 33.868 256.243 33.67 257.108 33.67ZM273.717 39.412H265.599C265.614 40.82 265.937 41.8833 266.567 42.602C267.213 43.3207 268.144 43.68 269.361 43.68C270.652 43.68 271.84 43.2473 272.925 42.382L273.519 43.68C273.035 44.1347 272.412 44.494 271.649 44.758C270.901 45.022 270.131 45.154 269.339 45.154C267.609 45.154 266.252 44.648 265.269 43.636C264.287 42.6093 263.795 41.2087 263.795 39.434C263.795 38.3047 264.015 37.3073 264.455 36.442C264.895 35.562 265.511 34.88 266.303 34.396C267.095 33.912 267.997 33.67 269.009 33.67C270.476 33.67 271.627 34.154 272.463 35.122C273.299 36.0753 273.717 37.3953 273.717 39.082V39.412ZM269.031 35.056C268.107 35.056 267.352 35.3347 266.765 35.892C266.193 36.4493 265.827 37.234 265.665 38.246H272.111C272.023 37.2047 271.715 36.4127 271.187 35.87C270.674 35.3273 269.955 35.056 269.031 35.056ZM291.904 33.934V45H290.144V42.998C289.822 43.6873 289.33 44.2227 288.67 44.604C288.025 44.9707 287.27 45.154 286.404 45.154C285.422 45.154 284.556 44.9193 283.808 44.45C283.075 43.9807 282.503 43.3207 282.092 42.47C281.696 41.6047 281.498 40.6 281.498 39.456C281.498 38.312 281.704 37.3073 282.114 36.442C282.525 35.562 283.097 34.88 283.83 34.396C284.578 33.912 285.436 33.67 286.404 33.67C287.27 33.67 288.025 33.8607 288.67 34.242C289.316 34.6233 289.807 35.1587 290.144 35.848V33.934H291.904ZM286.756 43.68C287.842 43.68 288.678 43.3133 289.264 42.58C289.851 41.832 290.144 40.776 290.144 39.412C290.144 38.048 289.851 36.9993 289.264 36.266C288.678 35.5327 287.842 35.166 286.756 35.166C285.671 35.166 284.82 35.5473 284.204 36.31C283.603 37.058 283.302 38.1067 283.302 39.456C283.302 40.8053 283.603 41.8467 284.204 42.58C284.806 43.3133 285.656 43.68 286.756 43.68ZM300.872 33.67C303.526 33.67 304.854 35.1293 304.854 38.048V45H303.072V38.136C303.072 37.1093 302.866 36.3613 302.456 35.892C302.045 35.408 301.4 35.166 300.52 35.166C299.493 35.166 298.672 35.4813 298.056 36.112C297.44 36.7427 297.132 37.5933 297.132 38.664V45H295.35V37.036C295.35 35.892 295.291 34.858 295.174 33.934H296.868L297.044 35.914C297.381 35.1953 297.887 34.6453 298.562 34.264C299.236 33.868 300.006 33.67 300.872 33.67ZM317.965 28.808V45H316.205V42.998C315.882 43.6873 315.391 44.2227 314.731 44.604C314.086 44.9707 313.33 45.154 312.465 45.154C311.497 45.154 310.639 44.912 309.891 44.428C309.158 43.944 308.586 43.2693 308.175 42.404C307.764 41.524 307.559 40.512 307.559 39.368C307.559 38.224 307.757 37.2267 308.153 36.376C308.564 35.5107 309.143 34.8433 309.891 34.374C310.639 33.9047 311.497 33.67 312.465 33.67C313.33 33.67 314.086 33.8607 314.731 34.242C315.376 34.6087 315.86 35.1293 316.183 35.804V28.808H317.965ZM312.817 43.68C313.902 43.68 314.738 43.3133 315.325 42.58C315.912 41.832 316.205 40.776 316.205 39.412C316.205 38.0627 315.912 37.0213 315.325 36.288C314.738 35.54 313.902 35.166 312.817 35.166C311.732 35.166 310.881 35.5327 310.265 36.266C309.664 36.9993 309.363 38.0333 309.363 39.368C309.363 40.732 309.664 41.7953 310.265 42.558C310.881 43.306 311.732 43.68 312.817 43.68ZM331.789 45.154C330.718 45.154 329.779 44.9193 328.973 44.45C328.181 43.9807 327.565 43.3207 327.125 42.47C326.699 41.6047 326.487 40.6 326.487 39.456C326.487 38.312 326.707 37.3073 327.147 36.442C327.587 35.562 328.21 34.88 329.017 34.396C329.838 33.912 330.791 33.67 331.877 33.67C332.625 33.67 333.343 33.802 334.033 34.066C334.737 34.3153 335.316 34.6673 335.771 35.122L335.177 36.442C334.619 36.002 334.077 35.6793 333.549 35.474C333.035 35.2687 332.507 35.166 331.965 35.166C330.835 35.166 329.948 35.5473 329.303 36.31C328.657 37.058 328.335 38.1067 328.335 39.456C328.335 40.7907 328.65 41.832 329.281 42.58C329.926 43.3133 330.821 43.68 331.965 43.68C332.507 43.68 333.035 43.5773 333.549 43.372C334.077 43.1667 334.619 42.844 335.177 42.404L335.771 43.724C335.301 44.164 334.707 44.516 333.989 44.78C333.285 45.0293 332.551 45.154 331.789 45.154ZM343.187 33.67C343.554 33.67 343.891 33.714 344.199 33.802L344.155 35.43C343.818 35.3127 343.429 35.254 342.989 35.254C341.919 35.254 341.119 35.5913 340.591 36.266C340.078 36.926 339.821 37.7327 339.821 38.686V45H338.039V37.036C338.039 35.892 337.981 34.858 337.863 33.934H339.557L339.733 35.98C340.012 35.232 340.459 34.66 341.075 34.264C341.691 33.868 342.395 33.67 343.187 33.67ZM355.057 39.412H346.939C346.954 40.82 347.276 41.8833 347.907 42.602C348.552 43.3207 349.484 43.68 350.701 43.68C351.992 43.68 353.18 43.2473 354.265 42.382L354.859 43.68C354.375 44.1347 353.752 44.494 352.989 44.758C352.241 45.022 351.471 45.154 350.679 45.154C348.948 45.154 347.592 44.648 346.609 43.636C345.626 42.6093 345.135 41.2087 345.135 39.434C345.135 38.3047 345.355 37.3073 345.795 36.442C346.235 35.562 346.851 34.88 347.643 34.396C348.435 33.912 349.337 33.67 350.349 33.67C351.816 33.67 352.967 34.154 353.803 35.122C354.639 36.0753 355.057 37.3953 355.057 39.082V39.412ZM350.371 35.056C349.447 35.056 348.692 35.3347 348.105 35.892C347.533 36.4493 347.166 37.234 347.005 38.246H353.451C353.363 37.2047 353.055 36.4127 352.527 35.87C352.014 35.3273 351.295 35.056 350.371 35.056ZM367.508 33.934V45H365.748V42.998C365.425 43.6873 364.934 44.2227 364.274 44.604C363.629 44.9707 362.873 45.154 362.008 45.154C361.025 45.154 360.16 44.9193 359.412 44.45C358.679 43.9807 358.107 43.3207 357.696 42.47C357.3 41.6047 357.102 40.6 357.102 39.456C357.102 38.312 357.307 37.3073 357.718 36.442C358.129 35.562 358.701 34.88 359.434 34.396C360.182 33.912 361.04 33.67 362.008 33.67C362.873 33.67 363.629 33.8607 364.274 34.242C364.919 34.6233 365.411 35.1587 365.748 35.848V33.934H367.508ZM362.36 43.68C363.445 43.68 364.281 43.3133 364.868 42.58C365.455 41.832 365.748 40.776 365.748 39.412C365.748 38.048 365.455 36.9993 364.868 36.266C364.281 35.5327 363.445 35.166 362.36 35.166C361.275 35.166 360.424 35.5473 359.808 36.31C359.207 37.058 358.906 38.1067 358.906 39.456C358.906 40.8053 359.207 41.8467 359.808 42.58C360.409 43.3133 361.26 43.68 362.36 43.68ZM373.329 35.342V41.392C373.329 42.2133 373.498 42.7927 373.835 43.13C374.173 43.4527 374.649 43.614 375.265 43.614C375.676 43.614 376.072 43.548 376.453 43.416V44.934C375.999 45.0807 375.485 45.154 374.913 45.154C373.857 45.154 373.029 44.8607 372.427 44.274C371.841 43.6727 371.547 42.7927 371.547 41.634V35.342H369.391V33.934H371.547V31.096L373.329 30.458V33.934H376.497V35.342H373.329ZM387.907 39.412H379.789C379.803 40.82 380.126 41.8833 380.757 42.602C381.402 43.3207 382.333 43.68 383.551 43.68C384.841 43.68 386.029 43.2473 387.115 42.382L387.709 43.68C387.225 44.1347 386.601 44.494 385.839 44.758C385.091 45.022 384.321 45.154 383.529 45.154C381.798 45.154 380.441 44.648 379.459 43.636C378.476 42.6093 377.985 41.2087 377.985 39.434C377.985 38.3047 378.205 37.3073 378.645 36.442C379.085 35.562 379.701 34.88 380.493 34.396C381.285 33.912 382.187 33.67 383.199 33.67C384.665 33.67 385.817 34.154 386.653 35.122C387.489 36.0753 387.907 37.3953 387.907 39.082V39.412ZM383.221 35.056C382.297 35.056 381.541 35.3347 380.955 35.892C380.383 36.4493 380.016 37.234 379.855 38.246H386.301C386.213 37.2047 385.905 36.4127 385.377 35.87C384.863 35.3273 384.145 35.056 383.221 35.056ZM150.413 61.934L146.321 73H144.605L141.437 64.354L138.291 73H136.575L132.483 61.934H134.353L137.477 70.866L140.711 61.934H142.273L145.463 70.888L148.653 61.934H150.413ZM158.248 61.67C160.902 61.67 162.23 63.1293 162.23 66.048V73H160.448V66.136C160.448 65.1093 160.242 64.3613 159.832 63.892C159.421 63.408 158.776 63.166 157.896 63.166C156.869 63.166 156.048 63.4813 155.432 64.112C154.816 64.7427 154.508 65.5933 154.508 66.664V73H152.726V56.808H154.508V63.738C154.86 63.0633 155.358 62.55 156.004 62.198C156.664 61.846 157.412 61.67 158.248 61.67ZM175.341 61.934V73H173.581V70.998C173.258 71.6873 172.767 72.2227 172.107 72.604C171.462 72.9707 170.706 73.154 169.841 73.154C168.858 73.154 167.993 72.9193 167.245 72.45C166.512 71.9807 165.94 71.3207 165.529 70.47C165.133 69.6047 164.935 68.6 164.935 67.456C164.935 66.312 165.14 65.3073 165.551 64.442C165.962 63.562 166.534 62.88 167.267 62.396C168.015 61.912 168.873 61.67 169.841 61.67C170.706 61.67 171.462 61.8607 172.107 62.242C172.752 62.6233 173.244 63.1587 173.581 63.848V61.934H175.341ZM170.193 71.68C171.278 71.68 172.114 71.3133 172.701 70.58C173.288 69.832 173.581 68.776 173.581 67.412C173.581 66.048 173.288 64.9993 172.701 64.266C172.114 63.5327 171.278 63.166 170.193 63.166C169.108 63.166 168.257 63.5473 167.641 64.31C167.04 65.058 166.739 66.1067 166.739 67.456C166.739 68.8053 167.04 69.8467 167.641 70.58C168.242 71.3133 169.093 71.68 170.193 71.68ZM181.162 63.342V69.392C181.162 70.2133 181.331 70.7927 181.668 71.13C182.006 71.4527 182.482 71.614 183.098 71.614C183.509 71.614 183.905 71.548 184.286 71.416V72.934C183.832 73.0807 183.318 73.154 182.746 73.154C181.69 73.154 180.862 72.8607 180.26 72.274C179.674 71.6727 179.38 70.7927 179.38 69.634V63.342H177.224V61.934H179.38V59.096L181.162 58.458V61.934H184.33V63.342H181.162ZM187.468 60.746L189.668 56.258H191.736L188.722 60.746H187.468ZM196.813 73.154C194.951 73.154 193.477 72.6773 192.391 71.724L192.985 70.404C193.587 70.8733 194.195 71.2107 194.811 71.416C195.427 71.6213 196.117 71.724 196.879 71.724C197.715 71.724 198.346 71.5847 198.771 71.306C199.211 71.0127 199.431 70.5947 199.431 70.052C199.431 69.612 199.285 69.26 198.991 68.996C198.698 68.732 198.214 68.5267 197.539 68.38L195.669 67.94C194.745 67.7347 194.027 67.368 193.513 66.84C193.015 66.312 192.765 65.6813 192.765 64.948C192.765 63.98 193.154 63.1953 193.931 62.594C194.709 61.978 195.735 61.67 197.011 61.67C197.789 61.67 198.522 61.7947 199.211 62.044C199.901 62.2933 200.48 62.6527 200.949 63.122L200.355 64.42C199.314 63.5547 198.199 63.122 197.011 63.122C196.219 63.122 195.603 63.276 195.163 63.584C194.738 63.8773 194.525 64.2953 194.525 64.838C194.525 65.2927 194.657 65.652 194.921 65.916C195.2 66.18 195.64 66.3853 196.241 66.532L198.111 66.994C199.138 67.2287 199.901 67.5953 200.399 68.094C200.898 68.578 201.147 69.216 201.147 70.008C201.147 70.9613 200.759 71.724 199.981 72.296C199.204 72.868 198.148 73.154 196.813 73.154ZM215.246 61.67C217.9 61.67 219.228 63.1293 219.228 66.048V73H217.446V66.136C217.446 65.1093 217.24 64.3613 216.83 63.892C216.419 63.408 215.774 63.166 214.894 63.166C213.867 63.166 213.046 63.4813 212.43 64.112C211.814 64.7427 211.506 65.5933 211.506 66.664V73H209.724V65.036C209.724 63.892 209.665 62.858 209.548 61.934H211.242L211.418 63.914C211.755 63.1953 212.261 62.6453 212.936 62.264C213.61 61.868 214.38 61.67 215.246 61.67ZM231.855 67.412H223.737C223.752 68.82 224.074 69.8833 224.705 70.602C225.35 71.3207 226.282 71.68 227.499 71.68C228.79 71.68 229.978 71.2473 231.063 70.382L231.657 71.68C231.173 72.1347 230.55 72.494 229.787 72.758C229.039 73.022 228.269 73.154 227.477 73.154C225.746 73.154 224.39 72.648 223.407 71.636C222.424 70.6093 221.933 69.2087 221.933 67.434C221.933 66.3047 222.153 65.3073 222.593 64.442C223.033 63.562 223.649 62.88 224.441 62.396C225.233 61.912 226.135 61.67 227.147 61.67C228.614 61.67 229.765 62.154 230.601 63.122C231.437 64.0753 231.855 65.3953 231.855 67.082V67.412ZM227.169 63.056C226.245 63.056 225.49 63.3347 224.903 63.892C224.331 64.4493 223.964 65.234 223.803 66.246H230.249C230.161 65.2047 229.853 64.4127 229.325 63.87C228.812 63.3273 228.093 63.056 227.169 63.056ZM251.239 61.934L247.147 73H245.431L242.263 64.354L239.117 73H237.401L233.309 61.934H235.179L238.303 70.866L241.537 61.934H243.099L246.289 70.888L249.479 61.934H251.239ZM254.694 70.734V73H252.428V70.734H254.694Z" fill="white"/>
</svg>
