<svg width="181" height="51" viewBox="0 0 181 51" fill="none" xmlns="http://www.w3.org/2000/svg">
<path d="M0.285767 3.92208C0.285767 1.9647 1.65612 0.37793 3.34653 0.37793L40.5107 0.37793C42.2011 0.37793 43.5715 1.9647 43.5715 3.92209V46.9557C43.5715 48.9131 42.2011 50.4999 40.5107 50.4999H3.34653C1.65611 50.4999 0.285767 48.9131 0.285767 46.9557V3.92208Z" fill="#46BD62"/>
<path d="M32.1065 22.7195L32.1068 22.7194L32.1048 22.7127C32.0993 22.6943 32.0915 22.6772 32.0872 22.6674C32.0817 22.6551 32.0796 22.6501 32.0785 22.6464L32.0794 22.6462L32.0748 22.6359C32.0746 22.6351 32.0741 22.6331 32.073 22.629L32.073 22.629C32.0721 22.6255 32.0701 22.6174 32.0667 22.6087C32.0633 22.5998 32.0567 22.5855 32.0443 22.5715L31.9696 22.638L32.0443 22.5715C32.0368 22.5632 32.0292 22.5568 32.0221 22.5518C32.022 22.5517 32.0219 22.5517 32.0219 22.5516C32.0021 22.5259 31.9792 22.508 31.9641 22.4967C31.9425 22.4748 31.9131 22.4536 31.88 22.4412C31.8574 22.4327 31.8462 22.4282 31.8414 22.4255L31.8347 22.4217L31.8275 22.4191C31.8079 22.4117 31.7752 22.4012 31.7419 22.3986C31.7351 22.3959 31.7201 22.3906 31.7006 22.3906H30.1605V13.277C30.1605 13.0266 29.982 12.8084 29.7325 12.8084H12.6755C12.426 12.8084 12.2475 13.0266 12.2475 13.277V22.3906H10.7074C10.6879 22.3906 10.6728 22.3959 10.666 22.3986C10.6503 22.3999 10.6365 22.403 10.6257 22.4058C10.6186 22.4076 10.6076 22.4108 10.599 22.4134C10.5946 22.4147 10.5909 22.4158 10.5885 22.4164L10.5884 22.4161L10.5805 22.4191L10.551 22.4301L10.5215 22.4412C10.4826 22.4557 10.4563 22.4823 10.4425 22.4977C10.4268 22.5096 10.4033 22.5283 10.3836 22.555C10.3775 22.5601 10.3688 22.5686 10.3613 22.5807C10.3556 22.5899 10.3516 22.5993 10.349 22.6086C10.3459 22.6167 10.344 22.6232 10.3427 22.6275L10.3426 22.628C10.3421 22.6296 10.3418 22.6306 10.3415 22.6314C10.3249 22.6617 10.3163 22.6907 10.3105 22.7103L10.3098 22.7128C10.3027 22.7366 10.2932 22.7752 10.2926 22.8109L10.2916 22.8153L10.2915 22.8159C10.2907 22.8192 10.2894 22.8252 10.2883 22.8316C10.2872 22.8387 10.286 22.8482 10.286 22.8591V37.5994C10.2788 37.8519 10.4586 38.0694 10.7074 38.0694H31.7006C31.9501 38.0694 32.1286 37.8512 32.1286 37.6009V22.8591C32.1286 22.8482 32.1274 22.8387 32.1262 22.8316C32.1251 22.8248 32.1237 22.8185 32.1229 22.8153L32.122 22.8111V22.8004L32.1179 22.7865C32.117 22.7836 32.1162 22.7794 32.1146 22.7672L32.1141 22.7642C32.1127 22.7532 32.1105 22.7373 32.1065 22.7195ZM13.1035 24.2868V13.7455H29.3045V24.2868L24.4394 28.3845L24.4393 28.3846L21.204 31.1163L13.1035 24.2868ZM30.1605 23.3277H30.4427L30.1605 23.5655V23.3277ZM12.2475 23.3277V23.5655L11.9653 23.3277H12.2475ZM11.1354 37.1323V23.8113L20.9414 32.0743C20.9416 32.0745 20.9418 32.0747 20.9421 32.0749C21.0201 32.1428 21.1092 32.1727 21.204 32.1727C21.2988 32.1727 21.3879 32.1428 21.4659 32.0749C21.4662 32.0747 21.4664 32.0745 21.4666 32.0743L31.2726 23.8113V37.1323H11.1354ZM15.2997 16.6939H23.1721C23.4217 16.6939 23.6001 16.4757 23.6001 16.2253C23.6001 15.975 23.4217 15.7568 23.1721 15.7568H15.2997C15.0501 15.7568 14.8717 15.975 14.8717 16.2253C14.8717 16.4757 15.0501 16.6939 15.2997 16.6939ZM15.2997 19.6422H27.1083C27.3579 19.6422 27.5363 19.424 27.5363 19.1737C27.5363 18.9233 27.3579 18.7051 27.1083 18.7051H15.2997C15.0501 18.7051 14.8717 18.9233 14.8717 19.1737C14.8717 19.424 15.0501 19.6422 15.2997 19.6422ZM15.2997 22.5906H27.1083C27.3579 22.5906 27.5363 22.3724 27.5363 22.122C27.5363 21.8717 27.3579 21.6535 27.1083 21.6535H15.2997C15.0501 21.6535 14.8717 21.8717 14.8717 22.122C14.8717 22.3724 15.0501 22.5906 15.2997 22.5906ZM27.5363 25.0704C27.5363 24.82 27.3579 24.6018 27.1083 24.6018H15.2997C15.0501 24.6018 14.8717 24.82 14.8717 25.0704C14.8717 25.3207 15.0501 25.5389 15.2997 25.5389H27.1083C27.3579 25.5389 27.5363 25.3207 27.5363 25.0704Z" fill="white" stroke="white" stroke-width="0.2"/>
<path d="M75.0457 9.88193H77.3497V16.4339C76.5177 17.1219 75.5497 17.6499 74.4457 18.0179C73.3417 18.3859 72.1897 18.5699 70.9897 18.5699C69.2937 18.5699 67.7657 18.2019 66.4057 17.4659C65.0457 16.7139 63.9737 15.6899 63.1897 14.3939C62.4217 13.0819 62.0377 11.6099 62.0377 9.97793C62.0377 8.34593 62.4217 6.87393 63.1897 5.56193C63.9737 4.24993 65.0457 3.22593 66.4057 2.48993C67.7817 1.75393 69.3257 1.38593 71.0377 1.38593C72.3817 1.38593 73.5977 1.60993 74.6857 2.05793C75.7897 2.48993 76.7257 3.12993 77.4937 3.97793L76.0057 5.46593C74.6617 4.16993 73.0377 3.52193 71.1337 3.52193C69.8537 3.52193 68.7017 3.80193 67.6777 4.36193C66.6697 4.90593 65.8777 5.67393 65.3017 6.66593C64.7257 7.64193 64.4377 8.74593 64.4377 9.97793C64.4377 11.1939 64.7257 12.2979 65.3017 13.2899C65.8777 14.2659 66.6697 15.0339 67.6777 15.5939C68.7017 16.1539 69.8457 16.4339 71.1097 16.4339C72.6137 16.4339 73.9257 16.0739 75.0457 15.3539V9.88193ZM96.0568 16.2899V18.3779H83.8648V1.57793H95.7208V3.66593H86.2648V8.82593H94.6888V10.8659H86.2648V16.2899H96.0568ZM105.199 3.66593H99.4389V1.57793H113.335V3.66593H107.575V18.3779H105.199V3.66593ZM126.234 1.57793H128.634V18.3779H126.234V1.57793ZM150.032 1.57793V18.3779H148.064L137.984 5.84993V18.3779H135.584V1.57793H137.552L147.632 14.1059V1.57793H150.032ZM66.3577 33.7459H60.9817V30.5779H75.6217V33.7459H70.2457V47.3779H66.3577V33.7459ZM87.5353 47.6659C85.7913 47.6659 84.2153 47.2899 82.8073 46.5379C81.4153 45.7859 80.3193 44.7539 79.5193 43.4419C78.7353 42.1139 78.3433 40.6259 78.3433 38.9779C78.3433 37.3299 78.7353 35.8499 79.5193 34.5379C80.3193 33.2099 81.4153 32.1699 82.8073 31.4179C84.2153 30.6659 85.7913 30.2899 87.5353 30.2899C89.2793 30.2899 90.8473 30.6659 92.2393 31.4179C93.6313 32.1699 94.7273 33.2099 95.5273 34.5379C96.3273 35.8499 96.7273 37.3299 96.7273 38.9779C96.7273 40.6259 96.3273 42.1139 95.5273 43.4419C94.7273 44.7539 93.6313 45.7859 92.2393 46.5379C90.8473 47.2899 89.2793 47.6659 87.5353 47.6659ZM87.5353 44.3539C88.5273 44.3539 89.4233 44.1299 90.2233 43.6819C91.0233 43.2179 91.6473 42.5779 92.0953 41.7619C92.5593 40.9459 92.7913 40.0179 92.7913 38.9779C92.7913 37.9379 92.5593 37.0099 92.0953 36.1939C91.6473 35.3779 91.0233 34.7459 90.2233 34.2979C89.4233 33.8339 88.5273 33.6019 87.5353 33.6019C86.5433 33.6019 85.6473 33.8339 84.8473 34.2979C84.0473 34.7459 83.4153 35.3779 82.9513 36.1939C82.5033 37.0099 82.2793 37.9379 82.2793 38.9779C82.2793 40.0179 82.5033 40.9459 82.9513 41.7619C83.4153 42.5779 84.0473 43.2179 84.8473 43.6819C85.6473 44.1299 86.5433 44.3539 87.5353 44.3539ZM109.033 47.6659C106.633 47.6659 104.761 47.0019 103.417 45.6739C102.089 44.3459 101.425 42.4499 101.425 39.9859V30.5779H105.313V39.8419C105.313 42.8499 106.561 44.3539 109.057 44.3539C110.273 44.3539 111.201 43.9939 111.841 43.2739C112.481 42.5379 112.801 41.3939 112.801 39.8419V30.5779H116.641V39.9859C116.641 42.4499 115.969 44.3459 114.625 45.6739C113.297 47.0019 111.433 47.6659 109.033 47.6659ZM130.443 47.6659C128.731 47.6659 127.179 47.2979 125.787 46.5619C124.411 45.8099 123.323 44.7779 122.523 43.4659C121.739 42.1379 121.347 40.6419 121.347 38.9779C121.347 37.3139 121.739 35.8259 122.523 34.5139C123.323 33.1859 124.411 32.1539 125.787 31.4179C127.179 30.6659 128.739 30.2899 130.467 30.2899C131.923 30.2899 133.235 30.5459 134.403 31.0579C135.587 31.5699 136.579 32.3059 137.379 33.2659L134.883 35.5699C133.747 34.2579 132.339 33.6019 130.659 33.6019C129.619 33.6019 128.691 33.8339 127.875 34.2979C127.059 34.7459 126.419 35.3779 125.955 36.1939C125.507 37.0099 125.283 37.9379 125.283 38.9779C125.283 40.0179 125.507 40.9459 125.955 41.7619C126.419 42.5779 127.059 43.2179 127.875 43.6819C128.691 44.1299 129.619 44.3539 130.659 44.3539C132.339 44.3539 133.747 43.6899 134.883 42.3619L137.379 44.6659C136.579 45.6419 135.587 46.3859 134.403 46.8979C133.219 47.4099 131.899 47.6659 130.443 47.6659ZM157.333 30.5779V47.3779H153.445V40.4899H145.813V47.3779H141.925V30.5779H145.813V37.2019H153.445V30.5779H157.333Z" fill="#06152B"/>
</svg>
