<svg width="199" height="33" viewBox="0 0 199 33" fill="none" xmlns="http://www.w3.org/2000/svg">
<path d="M20.76 4.08V8.6H13.32V32H7.72V8.6H0.28V4.08H20.76ZM34.6859 32.36C32.5526 32.36 30.6326 31.8933 28.9259 30.96C27.2193 30 25.8726 28.6533 24.8859 26.92C23.9259 25.1867 23.4459 23.1867 23.4459 20.92C23.4459 18.6533 23.9393 16.6533 24.9259 14.92C25.9393 13.1867 27.3126 11.8533 29.0459 10.92C30.7793 9.96 32.7126 9.48 34.8459 9.48C36.9793 9.48 38.9126 9.96 40.6459 10.92C42.3793 11.8533 43.7393 13.1867 44.7259 14.92C45.7393 16.6533 46.2459 18.6533 46.2459 20.92C46.2459 23.1867 45.7259 25.1867 44.6859 26.92C43.6726 28.6533 42.2859 30 40.5259 30.96C38.7926 31.8933 36.8459 32.36 34.6859 32.36ZM34.6859 27.48C35.6993 27.48 36.6459 27.24 37.5259 26.76C38.4326 26.2533 39.1526 25.5067 39.6859 24.52C40.2193 23.5333 40.4859 22.3333 40.4859 20.92C40.4859 18.8133 39.9259 17.2 38.8059 16.08C37.7126 14.9333 36.3659 14.36 34.7659 14.36C33.1659 14.36 31.8193 14.9333 30.7259 16.08C29.6593 17.2 29.1259 18.8133 29.1259 20.92C29.1259 23.0267 29.6459 24.6533 30.6859 25.8C31.7526 26.92 33.0859 27.48 34.6859 27.48ZM67.3938 15.36V20.08H50.4338V15.36H67.3938ZM72.2341 20.84C72.2341 18.6 72.6741 16.6133 73.5541 14.88C74.4607 13.1467 75.6874 11.8133 77.2341 10.88C78.7807 9.94667 80.5007 9.48 82.3941 9.48C83.8341 9.48 85.2074 9.8 86.5141 10.44C87.8207 11.0533 88.8607 11.88 89.6341 12.92V2.4H95.3141V32H89.6341V28.72C88.9407 29.8133 87.9674 30.6933 86.7141 31.36C85.4607 32.0267 84.0074 32.36 82.3541 32.36C80.4874 32.36 78.7807 31.88 77.2341 30.92C75.6874 29.96 74.4607 28.6133 73.5541 26.88C72.6741 25.12 72.2341 23.1067 72.2341 20.84ZM89.6741 20.92C89.6741 19.56 89.4074 18.4 88.8741 17.44C88.3407 16.4533 87.6207 15.7067 86.7141 15.2C85.8074 14.6667 84.8341 14.4 83.7941 14.4C82.7541 14.4 81.7941 14.6533 80.9141 15.16C80.0341 15.6667 79.3141 16.4133 78.7541 17.4C78.2207 18.36 77.9541 19.5067 77.9541 20.84C77.9541 22.1733 78.2207 23.3467 78.7541 24.36C79.3141 25.3467 80.0341 26.1067 80.9141 26.64C81.8207 27.1733 82.7807 27.44 83.7941 27.44C84.8341 27.44 85.8074 27.1867 86.7141 26.68C87.6207 26.1467 88.3407 25.4 88.8741 24.44C89.4074 23.4533 89.6741 22.28 89.6741 20.92ZM110.623 32.36C108.49 32.36 106.57 31.8933 104.863 30.96C103.157 30 101.81 28.6533 100.823 26.92C99.8634 25.1867 99.3834 23.1867 99.3834 20.92C99.3834 18.6533 99.8768 16.6533 100.863 14.92C101.877 13.1867 103.25 11.8533 104.983 10.92C106.717 9.96 108.65 9.48 110.783 9.48C112.917 9.48 114.85 9.96 116.583 10.92C118.317 11.8533 119.677 13.1867 120.663 14.92C121.677 16.6533 122.183 18.6533 122.183 20.92C122.183 23.1867 121.663 25.1867 120.623 26.92C119.61 28.6533 118.223 30 116.463 30.96C114.73 31.8933 112.783 32.36 110.623 32.36ZM110.623 27.48C111.637 27.48 112.583 27.24 113.463 26.76C114.37 26.2533 115.09 25.5067 115.623 24.52C116.157 23.5333 116.423 22.3333 116.423 20.92C116.423 18.8133 115.863 17.2 114.743 16.08C113.65 14.9333 112.303 14.36 110.703 14.36C109.103 14.36 107.757 14.9333 106.663 16.08C105.597 17.2 105.063 18.8133 105.063 20.92C105.063 23.0267 105.583 24.6533 106.623 25.8C107.69 26.92 109.023 27.48 110.623 27.48ZM141.423 27.56H150.623V32H135.823V4.08H141.423V27.56ZM157.022 7.2C156.035 7.2 155.209 6.89333 154.542 6.28C153.902 5.64 153.582 4.85333 153.582 3.92C153.582 2.98667 153.902 2.21333 154.542 1.6C155.209 0.959998 156.035 0.639998 157.022 0.639998C158.009 0.639998 158.822 0.959998 159.462 1.6C160.129 2.21333 160.462 2.98667 160.462 3.92C160.462 4.85333 160.129 5.64 159.462 6.28C158.822 6.89333 158.009 7.2 157.022 7.2ZM159.782 9.84V32H154.182V9.84H159.782ZM173.795 32.36C171.981 32.36 170.355 32.04 168.915 31.4C167.475 30.7333 166.328 29.84 165.475 28.72C164.648 27.6 164.195 26.36 164.115 25H169.755C169.861 25.8533 170.275 26.56 170.995 27.12C171.741 27.68 172.661 27.96 173.755 27.96C174.821 27.96 175.648 27.7467 176.235 27.32C176.848 26.8933 177.155 26.3467 177.155 25.68C177.155 24.96 176.781 24.4267 176.035 24.08C175.315 23.7067 174.155 23.3067 172.555 22.88C170.901 22.48 169.541 22.0667 168.475 21.64C167.435 21.2133 166.528 20.56 165.755 19.68C165.008 18.8 164.635 17.6133 164.635 16.12C164.635 14.8933 164.981 13.7733 165.675 12.76C166.395 11.7467 167.408 10.9467 168.715 10.36C170.048 9.77333 171.608 9.48 173.395 9.48C176.035 9.48 178.141 10.1467 179.715 11.48C181.288 12.7867 182.155 14.56 182.315 16.8H176.955C176.875 15.92 176.501 15.2267 175.835 14.72C175.195 14.1867 174.328 13.92 173.235 13.92C172.221 13.92 171.435 14.1067 170.875 14.48C170.341 14.8533 170.075 15.3733 170.075 16.04C170.075 16.7867 170.448 17.36 171.195 17.76C171.941 18.1333 173.101 18.52 174.675 18.92C176.275 19.32 177.595 19.7333 178.635 20.16C179.675 20.5867 180.568 21.2533 181.315 22.16C182.088 23.04 182.488 24.2133 182.515 25.68C182.515 26.96 182.155 28.1067 181.435 29.12C180.741 30.1333 179.728 30.9333 178.395 31.52C177.088 32.08 175.555 32.36 173.795 32.36ZM193.632 14.44V25.16C193.632 25.9067 193.805 26.4533 194.152 26.8C194.525 27.12 195.138 27.28 195.992 27.28H198.592V32H195.072C190.352 32 187.992 29.7067 187.992 25.12V14.44H185.352V9.84H187.992V4.36H193.632V9.84H198.592V14.44H193.632Z" fill="white"/>
</svg>
